<?xml version="1.0" standalone="no"?>
<!DOCTYPE svg PUBLIC "-//W3C//DTD SVG 20010904//EN"
 "http://www.w3.org/TR/2001/REC-SVG-20010904/DTD/svg10.dtd">
<svg version="1.0" xmlns="http://www.w3.org/2000/svg"
 width="191.000000pt" height="109.000000pt" viewBox="0 0 191.000000 109.000000"
 preserveAspectRatio="xMidYMid meet">

<g transform="translate(0.000000,109.000000) scale(0.100000,-0.100000)"
fill="#000000" stroke="none">
<path d="M655 361 c-131 -60 -152 -221 -42 -318 102 -90 259 -32 274 101 l6
46 -72 0 c-64 0 -71 -2 -71 -20 0 -17 7 -20 45 -20 39 0 45 -3 45 -21 0 -11
-13 -33 -28 -49 -83 -83 -222 -14 -222 110 0 123 130 188 226 115 28 -21 34
-23 44 -10 17 20 -2 42 -55 66 -51 24 -99 23 -150 0z"/>
<path d="M1422 200 c-45 -99 -82 -182 -82 -185 0 -3 10 -5 23 -5 17 0 26 11
40 45 l19 45 82 0 82 0 22 -45 c15 -31 28 -45 42 -45 11 0 20 4 20 8 0 9 -155
350 -162 358 -3 2 -42 -77 -86 -176z m121 3 l26 -63 -59 0 c-33 0 -60 4 -60 9
0 21 53 131 60 124 4 -4 19 -36 33 -70z"/>
<path d="M40 191 l0 -181 68 0 c128 1 193 54 200 166 8 123 -52 184 -189 192
l-79 5 0 -182z m170 112 c56 -33 75 -113 43 -180 -19 -41 -77 -72 -135 -73
l-38 0 0 141 0 142 50 -6 c28 -3 64 -14 80 -24z"/>
<path d="M410 190 c0 -173 1 -180 20 -180 19 0 20 7 20 180 0 173 -1 180 -20
180 -19 0 -20 -7 -20 -180z"/>
<path d="M980 190 l0 -180 25 0 25 0 0 180 0 180 -25 0 -25 0 0 -180z"/>
<path d="M1110 350 c0 -17 7 -20 45 -20 l45 0 0 -160 c0 -153 1 -160 20 -160
19 0 20 7 20 160 l0 160 45 0 c38 0 45 3 45 20 0 19 -7 20 -110 20 -103 0
-110 -1 -110 -20z"/>
<path d="M1760 190 l0 -180 75 0 c68 0 75 2 75 20 0 18 -7 20 -55 20 l-55 0 0
160 c0 153 -1 160 -20 160 -19 0 -20 -7 -20 -180z"/>
</g>
</svg>
